%TF.GenerationSoftware,KiCad,Pcbnew,8.0.8*%
%TF.CreationDate,2026-06-15T19:57:33+05:30*%
%TF.ProjectId,433 MHz RF Module,34333320-4d48-47a2-9052-46204d6f6475,rev?*%
%TF.SameCoordinates,Original*%
%TF.FileFunction,Drillmap*%
%TF.FilePolarity,Positive*%
%FSLAX45Y45*%
G04 Gerber Fmt 4.5, Leading zero omitted, Abs format (unit mm)*
G04 Created by KiCad (PCBNEW 8.0.8) date 2026-06-15 19:57:33*
%MOMM*%
%LPD*%
G01*
G04 APERTURE LIST*
%ADD10C,0.050000*%
%ADD11C,0.200000*%
G04 APERTURE END LIST*
D10*
X13760000Y-6700000D02*
X17160000Y-6700000D01*
X17160000Y-8580000D01*
X13760000Y-8580000D01*
X13760000Y-6700000D01*
D11*
X14018277Y-8893984D02*
X14018277Y-8693984D01*
X14018277Y-8693984D02*
X14065896Y-8693984D01*
X14065896Y-8693984D02*
X14094467Y-8703508D01*
X14094467Y-8703508D02*
X14113515Y-8722555D01*
X14113515Y-8722555D02*
X14123039Y-8741603D01*
X14123039Y-8741603D02*
X14132562Y-8779698D01*
X14132562Y-8779698D02*
X14132562Y-8808270D01*
X14132562Y-8808270D02*
X14123039Y-8846365D01*
X14123039Y-8846365D02*
X14113515Y-8865412D01*
X14113515Y-8865412D02*
X14094467Y-8884460D01*
X14094467Y-8884460D02*
X14065896Y-8893984D01*
X14065896Y-8893984D02*
X14018277Y-8893984D01*
X14218277Y-8893984D02*
X14218277Y-8760650D01*
X14218277Y-8798746D02*
X14227801Y-8779698D01*
X14227801Y-8779698D02*
X14237324Y-8770174D01*
X14237324Y-8770174D02*
X14256372Y-8760650D01*
X14256372Y-8760650D02*
X14275420Y-8760650D01*
X14342086Y-8893984D02*
X14342086Y-8760650D01*
X14342086Y-8693984D02*
X14332562Y-8703508D01*
X14332562Y-8703508D02*
X14342086Y-8713031D01*
X14342086Y-8713031D02*
X14351610Y-8703508D01*
X14351610Y-8703508D02*
X14342086Y-8693984D01*
X14342086Y-8693984D02*
X14342086Y-8713031D01*
X14465896Y-8893984D02*
X14446848Y-8884460D01*
X14446848Y-8884460D02*
X14437324Y-8865412D01*
X14437324Y-8865412D02*
X14437324Y-8693984D01*
X14570658Y-8893984D02*
X14551610Y-8884460D01*
X14551610Y-8884460D02*
X14542086Y-8865412D01*
X14542086Y-8865412D02*
X14542086Y-8693984D01*
X14799229Y-8893984D02*
X14799229Y-8693984D01*
X14799229Y-8693984D02*
X14865896Y-8836841D01*
X14865896Y-8836841D02*
X14932562Y-8693984D01*
X14932562Y-8693984D02*
X14932562Y-8893984D01*
X15113515Y-8893984D02*
X15113515Y-8789222D01*
X15113515Y-8789222D02*
X15103991Y-8770174D01*
X15103991Y-8770174D02*
X15084943Y-8760650D01*
X15084943Y-8760650D02*
X15046848Y-8760650D01*
X15046848Y-8760650D02*
X15027801Y-8770174D01*
X15113515Y-8884460D02*
X15094467Y-8893984D01*
X15094467Y-8893984D02*
X15046848Y-8893984D01*
X15046848Y-8893984D02*
X15027801Y-8884460D01*
X15027801Y-8884460D02*
X15018277Y-8865412D01*
X15018277Y-8865412D02*
X15018277Y-8846365D01*
X15018277Y-8846365D02*
X15027801Y-8827317D01*
X15027801Y-8827317D02*
X15046848Y-8817793D01*
X15046848Y-8817793D02*
X15094467Y-8817793D01*
X15094467Y-8817793D02*
X15113515Y-8808270D01*
X15208753Y-8760650D02*
X15208753Y-8960650D01*
X15208753Y-8770174D02*
X15227801Y-8760650D01*
X15227801Y-8760650D02*
X15265896Y-8760650D01*
X15265896Y-8760650D02*
X15284943Y-8770174D01*
X15284943Y-8770174D02*
X15294467Y-8779698D01*
X15294467Y-8779698D02*
X15303991Y-8798746D01*
X15303991Y-8798746D02*
X15303991Y-8855889D01*
X15303991Y-8855889D02*
X15294467Y-8874936D01*
X15294467Y-8874936D02*
X15284943Y-8884460D01*
X15284943Y-8884460D02*
X15265896Y-8893984D01*
X15265896Y-8893984D02*
X15227801Y-8893984D01*
X15227801Y-8893984D02*
X15208753Y-8884460D01*
X15389705Y-8874936D02*
X15399229Y-8884460D01*
X15399229Y-8884460D02*
X15389705Y-8893984D01*
X15389705Y-8893984D02*
X15380182Y-8884460D01*
X15380182Y-8884460D02*
X15389705Y-8874936D01*
X15389705Y-8874936D02*
X15389705Y-8893984D01*
X15389705Y-8770174D02*
X15399229Y-8779698D01*
X15399229Y-8779698D02*
X15389705Y-8789222D01*
X15389705Y-8789222D02*
X15380182Y-8779698D01*
X15380182Y-8779698D02*
X15389705Y-8770174D01*
X15389705Y-8770174D02*
X15389705Y-8789222D01*
M02*
