%TF.GenerationSoftware,KiCad,Pcbnew,8.0.8*%
%TF.CreationDate,2026-06-15T19:57:16+05:30*%
%TF.ProjectId,433 MHz RF Module,34333320-4d48-47a2-9052-46204d6f6475,rev?*%
%TF.SameCoordinates,Original*%
%TF.FileFunction,Copper,L1,Top*%
%TF.FilePolarity,Positive*%
%FSLAX46Y46*%
G04 Gerber Fmt 4.6, Leading zero omitted, Abs format (unit mm)*
G04 Created by KiCad (PCBNEW 8.0.8) date 2026-06-15 19:57:16*
%MOMM*%
%LPD*%
G01*
G04 APERTURE LIST*
G04 Aperture macros list*
%AMRoundRect*
0 Rectangle with rounded corners*
0 $1 Rounding radius*
0 $2 $3 $4 $5 $6 $7 $8 $9 X,Y pos of 4 corners*
0 Add a 4 corners polygon primitive as box body*
4,1,4,$2,$3,$4,$5,$6,$7,$8,$9,$2,$3,0*
0 Add four circle primitives for the rounded corners*
1,1,$1+$1,$2,$3*
1,1,$1+$1,$4,$5*
1,1,$1+$1,$6,$7*
1,1,$1+$1,$8,$9*
0 Add four rect primitives between the rounded corners*
20,1,$1+$1,$2,$3,$4,$5,0*
20,1,$1+$1,$4,$5,$6,$7,0*
20,1,$1+$1,$6,$7,$8,$9,0*
20,1,$1+$1,$8,$9,$2,$3,0*%
G04 Aperture macros list end*
%TA.AperFunction,SMDPad,CuDef*%
%ADD10RoundRect,0.112500X-0.112500X-0.237500X0.112500X-0.237500X0.112500X0.237500X-0.112500X0.237500X0*%
%TD*%
%TA.AperFunction,SMDPad,CuDef*%
%ADD11RoundRect,0.250000X-0.325000X-0.650000X0.325000X-0.650000X0.325000X0.650000X-0.325000X0.650000X0*%
%TD*%
%TA.AperFunction,ComponentPad*%
%ADD12C,1.500000*%
%TD*%
%TA.AperFunction,ComponentPad*%
%ADD13R,1.700000X1.700000*%
%TD*%
%TA.AperFunction,ComponentPad*%
%ADD14O,1.700000X1.700000*%
%TD*%
%TA.AperFunction,ComponentPad*%
%ADD15RoundRect,0.246063X-0.503937X-0.503937X0.503937X-0.503937X0.503937X0.503937X-0.503937X0.503937X0*%
%TD*%
%TA.AperFunction,SMDPad,CuDef*%
%ADD16RoundRect,0.250000X0.450000X-0.262500X0.450000X0.262500X-0.450000X0.262500X-0.450000X-0.262500X0*%
%TD*%
%TA.AperFunction,ComponentPad*%
%ADD17C,1.600000*%
%TD*%
%TA.AperFunction,ComponentPad*%
%ADD18O,1.600000X1.600000*%
%TD*%
%TA.AperFunction,ViaPad*%
%ADD19C,0.600000*%
%TD*%
%TA.AperFunction,Conductor*%
%ADD20C,0.500000*%
%TD*%
%TA.AperFunction,Conductor*%
%ADD21C,0.300000*%
%TD*%
G04 APERTURE END LIST*
D10*
%TO.P,Q1,1,B*%
%TO.N,Net-(Q1-B)*%
X160550000Y-75000000D03*
%TO.P,Q1,2,E*%
%TO.N,Net-(Q1-E)*%
X161850000Y-75000000D03*
%TO.P,Q1,3,C*%
%TO.N,Net-(Q1-C)*%
X161200000Y-73000000D03*
%TD*%
D11*
%TO.P,C2,1*%
%TO.N,Net-(Q1-C)*%
X157625000Y-69500000D03*
%TO.P,C2,2*%
%TO.N,Net-(AE1-A)*%
X160575000Y-69500000D03*
%TD*%
D12*
%TO.P,Y1,1,1*%
%TO.N,Net-(C1-Pad1)*%
X150850000Y-72300000D03*
%TO.P,Y1,2,2*%
%TO.N,Net-(Q1-B)*%
X150850000Y-76100000D03*
%TD*%
D13*
%TO.P,J1,1,Pin_1*%
%TO.N,/VCC*%
X162325000Y-81825000D03*
D14*
%TO.P,J1,2,Pin_2*%
%TO.N,/DATA*%
X159785000Y-81825000D03*
%TO.P,J1,3,Pin_3*%
%TO.N,GND*%
X157245000Y-81825000D03*
%TD*%
D15*
%TO.P,Antenna,1,A*%
%TO.N,Net-(AE1-A)*%
X169400000Y-69550000D03*
%TD*%
D10*
%TO.P,Q2,1,B*%
%TO.N,Net-(Q2-B)*%
X164800000Y-77000000D03*
%TO.P,Q2,2,E*%
%TO.N,GND*%
X166100000Y-77000000D03*
%TO.P,Q2,3,C*%
%TO.N,Net-(Q1-E)*%
X165450000Y-75000000D03*
%TD*%
D16*
%TO.P,R2,1*%
%TO.N,/DATA*%
X159800000Y-78412500D03*
%TO.P,R2,2*%
%TO.N,Net-(Q2-B)*%
X159800000Y-76587500D03*
%TD*%
D17*
%TO.P,L1,1,1*%
%TO.N,/VCC*%
X140250000Y-81400000D03*
D18*
%TO.P,L1,2,2*%
%TO.N,Net-(C1-Pad1)*%
X152950000Y-81400000D03*
%TD*%
D11*
%TO.P,C1,1*%
%TO.N,Net-(C1-Pad1)*%
X154425000Y-73600000D03*
%TO.P,C1,2*%
%TO.N,Net-(Q1-E)*%
X157375000Y-73600000D03*
%TD*%
D17*
%TO.P,L2,1,1*%
%TO.N,Net-(C1-Pad1)*%
X140400000Y-78010000D03*
D18*
%TO.P,L2,2,2*%
%TO.N,Net-(Q1-C)*%
X140400000Y-70390000D03*
%TD*%
D16*
%TO.P,R1,1*%
%TO.N,Net-(C1-Pad1)*%
X155000000Y-78912500D03*
%TO.P,R1,2*%
%TO.N,Net-(Q1-B)*%
X155000000Y-77087500D03*
%TD*%
D19*
%TO.N,Net-(C1-Pad1)*%
X154425000Y-75000000D03*
X157500000Y-77850000D03*
%TO.N,Net-(Q1-C)*%
X154900000Y-69400000D03*
X142400000Y-70400000D03*
%TD*%
D20*
%TO.N,Net-(AE1-A)*%
X160675000Y-69600000D02*
X169400000Y-69600000D01*
X160575000Y-69500000D02*
X160675000Y-69600000D01*
%TO.N,Net-(C1-Pad1)*%
X154425000Y-74100000D02*
X154325000Y-74200000D01*
D21*
X153125000Y-72300000D02*
X150850000Y-72300000D01*
D20*
X153800000Y-81400000D02*
X155000000Y-80200000D01*
X152950000Y-81400000D02*
X153800000Y-81400000D01*
D21*
X154325000Y-73500000D02*
X153125000Y-72300000D01*
D20*
X155000000Y-80200000D02*
X155000000Y-78912500D01*
D21*
X156437500Y-78912500D02*
X155000000Y-78912500D01*
X157500000Y-77850000D02*
X156437500Y-78912500D01*
D20*
X154425000Y-73600000D02*
X154425000Y-74100000D01*
D21*
X154425000Y-75000000D02*
X154425000Y-73600000D01*
%TO.N,Net-(Q1-E)*%
X160950000Y-74100000D02*
X161850000Y-75000000D01*
X161850000Y-75000000D02*
X165450000Y-75000000D01*
X157275000Y-74200000D02*
X157375000Y-74100000D01*
X157375000Y-74100000D02*
X160950000Y-74100000D01*
%TO.N,Net-(Q1-C)*%
X161200000Y-73000000D02*
X159300000Y-73000000D01*
X154900000Y-69400000D02*
X155000000Y-69500000D01*
X157625000Y-71325000D02*
X157625000Y-69500000D01*
X155000000Y-69500000D02*
X157625000Y-69500000D01*
X142400000Y-70400000D02*
X141400000Y-70400000D01*
D20*
X141390000Y-70390000D02*
X140400000Y-70390000D01*
D21*
X159300000Y-73000000D02*
X157625000Y-71325000D01*
X141400000Y-70400000D02*
X141390000Y-70390000D01*
D20*
%TO.N,/DATA*%
X159785000Y-81825000D02*
X159800000Y-81810000D01*
X159800000Y-81810000D02*
X159800000Y-78412500D01*
D21*
%TO.N,Net-(Q1-B)*%
X155000000Y-77087500D02*
X156462500Y-77087500D01*
X158550000Y-75000000D02*
X156462500Y-77087500D01*
D20*
X150850000Y-76100000D02*
X154012500Y-76100000D01*
D21*
X160550000Y-75000000D02*
X158550000Y-75000000D01*
D20*
X154012500Y-76100000D02*
X155000000Y-77087500D01*
D21*
%TO.N,Net-(Q2-B)*%
X159800000Y-76587500D02*
X161987500Y-76587500D01*
X161987500Y-76587500D02*
X162400000Y-77000000D01*
X162400000Y-77000000D02*
X164800000Y-77000000D01*
%TD*%
%TA.AperFunction,Conductor*%
%TO.N,GND*%
G36*
X171042539Y-67520185D02*
G01*
X171088294Y-67572989D01*
X171099500Y-67624500D01*
X171099500Y-85175500D01*
X171079815Y-85242539D01*
X171027011Y-85288294D01*
X170975500Y-85299500D01*
X138224500Y-85299500D01*
X138157461Y-85279815D01*
X138111706Y-85227011D01*
X138100500Y-85175500D01*
X138100500Y-81399998D01*
X138944532Y-81399998D01*
X138944532Y-81400001D01*
X138964364Y-81626686D01*
X138964366Y-81626697D01*
X139023258Y-81846488D01*
X139023261Y-81846497D01*
X139119431Y-82052732D01*
X139119432Y-82052734D01*
X139249954Y-82239141D01*
X139410858Y-82400045D01*
X139410861Y-82400047D01*
X139597266Y-82530568D01*
X139803504Y-82626739D01*
X140023308Y-82685635D01*
X140185230Y-82699801D01*
X140249998Y-82705468D01*
X140250000Y-82705468D01*
X140250002Y-82705468D01*
X140306673Y-82700509D01*
X140476692Y-82685635D01*
X140696496Y-82626739D01*
X140902734Y-82530568D01*
X141089139Y-82400047D01*
X141250047Y-82239139D01*
X141380568Y-82052734D01*
X141476739Y-81846496D01*
X141535635Y-81626692D01*
X141555468Y-81400000D01*
X141535635Y-81173308D01*
X141476852Y-80953926D01*
X141476741Y-80953511D01*
X141476738Y-80953502D01*
X141464440Y-80927129D01*
X141380568Y-80747266D01*
X141250047Y-80560861D01*
X141250045Y-80560858D01*
X141089141Y-80399954D01*
X140902734Y-80269432D01*
X140902732Y-80269431D01*
X140696497Y-80173261D01*
X140696488Y-80173258D01*
X140476697Y-80114366D01*
X140476693Y-80114365D01*
X140476692Y-80114365D01*
X140476691Y-80114364D01*
X140476686Y-80114364D01*
X140250002Y-80094532D01*
X140249998Y-80094532D01*
X140023313Y-80114364D01*
X140023302Y-80114366D01*
X139803511Y-80173258D01*
X139803502Y-80173261D01*
X139597267Y-80269431D01*
X139597265Y-80269432D01*
X139410858Y-80399954D01*
X139249954Y-80560858D01*
X139119432Y-80747265D01*
X139119431Y-80747267D01*
X139023261Y-80953502D01*
X139023258Y-80953511D01*
X138964366Y-81173302D01*
X138964364Y-81173313D01*
X138944532Y-81399998D01*
X138100500Y-81399998D01*
X138100500Y-78009998D01*
X139094532Y-78009998D01*
X139094532Y-78010001D01*
X139114364Y-78236686D01*
X139114366Y-78236697D01*
X139173258Y-78456488D01*
X139173261Y-78456497D01*
X139269431Y-78662732D01*
X139269432Y-78662734D01*
X139399954Y-78849141D01*
X139560858Y-79010045D01*
X139560861Y-79010047D01*
X139747266Y-79140568D01*
X139953504Y-79236739D01*
X140173308Y-79295635D01*
X140335230Y-79309801D01*
X140399998Y-79315468D01*
X140400000Y-79315468D01*
X140400002Y-79315468D01*
X140456673Y-79310509D01*
X140626692Y-79295635D01*
X140846496Y-79236739D01*
X141052734Y-79140568D01*
X141239139Y-79010047D01*
X141400047Y-78849139D01*
X141530568Y-78662734D01*
X141626739Y-78456496D01*
X141685635Y-78236692D01*
X141703783Y-78029255D01*
X141705468Y-78010001D01*
X141705468Y-78009998D01*
X141696922Y-77912319D01*
X141685635Y-77783308D01*
X141626739Y-77563504D01*
X141530568Y-77357266D01*
X141400047Y-77170861D01*
X141400045Y-77170858D01*
X141239141Y-77009954D01*
X141052734Y-76879432D01*
X141052732Y-76879431D01*
X140846497Y-76783261D01*
X140846488Y-76783258D01*
X140626697Y-76724366D01*
X140626693Y-76724365D01*
X140626692Y-76724365D01*
X140626691Y-76724364D01*
X140626686Y-76724364D01*
X140400002Y-76704532D01*
X140399998Y-76704532D01*
X140173313Y-76724364D01*
X140173302Y-76724366D01*
X139953511Y-76783258D01*
X139953502Y-76783261D01*
X139747267Y-76879431D01*
X139747265Y-76879432D01*
X139560858Y-77009954D01*
X139399954Y-77170858D01*
X139269432Y-77357265D01*
X139269431Y-77357267D01*
X139173261Y-77563502D01*
X139173258Y-77563511D01*
X139114366Y-77783302D01*
X139114364Y-77783313D01*
X139094532Y-78009998D01*
X138100500Y-78009998D01*
X138100500Y-72299997D01*
X149594723Y-72299997D01*
X149594723Y-72300002D01*
X149602055Y-72383805D01*
X149613717Y-72517113D01*
X149613793Y-72517975D01*
X149613793Y-72517979D01*
X149670422Y-72729322D01*
X149670424Y-72729326D01*
X149670425Y-72729330D01*
X149702073Y-72797200D01*
X149762897Y-72927638D01*
X149762898Y-72927639D01*
X149888402Y-73106877D01*
X150043123Y-73261598D01*
X150222361Y-73387102D01*
X150420670Y-73479575D01*
X150420676Y-73479576D01*
X150420677Y-73479577D01*
X150433034Y-73482888D01*
X150632023Y-73536207D01*
X150814926Y-73552208D01*
X150849998Y-73555277D01*
X150850000Y-73555277D01*
X150850002Y-73555277D01*
X150878254Y-73552805D01*
X151067977Y-73536207D01*
X151279330Y-73479575D01*
X151477639Y-73387102D01*
X151656877Y-73261598D01*
X151811598Y-73106877D01*
X151884071Y-73003374D01*
X151938647Y-72959751D01*
X151985645Y-72950500D01*
X152804192Y-72950500D01*
X152871231Y-72970185D01*
X152891873Y-72986819D01*
X153313181Y-73408127D01*
X153346666Y-73469450D01*
X153349500Y-73495808D01*
X153349500Y-74300001D01*
X153349501Y-74300019D01*
X153360000Y-74402796D01*
X153360001Y-74402799D01*
X153415185Y-74569331D01*
X153415186Y-74569334D01*
X153474715Y-74665847D01*
X153507289Y-74718657D01*
X153594343Y-74805711D01*
X153627828Y-74867034D01*
X153629882Y-74907275D01*
X153619435Y-74999997D01*
X153619435Y-75000003D01*
X153639630Y-75179249D01*
X153639632Y-75179257D01*
X153641483Y-75184546D01*
X153645044Y-75254325D01*
X153610315Y-75314952D01*
X153548322Y-75347179D01*
X153524441Y-75349500D01*
X151915624Y-75349500D01*
X151848585Y-75329815D01*
X151814048Y-75296622D01*
X151811598Y-75293123D01*
X151772800Y-75254325D01*
X151656877Y-75138402D01*
X151477639Y-75012898D01*
X151477640Y-75012898D01*
X151477638Y-75012897D01*
X151310187Y-74934814D01*
X151279330Y-74920425D01*
X151279326Y-74920424D01*
X151279322Y-74920422D01*
X151067977Y-74863793D01*
X150850002Y-74844723D01*
X150849998Y-74844723D01*
X150704682Y-74857436D01*
X150632023Y-74863793D01*
X150632020Y-74863793D01*
X150420677Y-74920422D01*
X150420668Y-74920426D01*
X150222361Y-75012898D01*
X150222357Y-75012900D01*
X150043121Y-75138402D01*
X149888402Y-75293121D01*
X149762900Y-75472357D01*
X149762898Y-75472361D01*
X149670426Y-75670668D01*
X149670422Y-75670677D01*
X149613793Y-75882020D01*
X149613793Y-75882024D01*
X149594723Y-76099997D01*
X149594723Y-76100002D01*
X149601040Y-76172203D01*
X149613373Y-76313181D01*
X149613793Y-76317975D01*
X149613793Y-76317979D01*
X149670422Y-76529322D01*
X149670424Y-76529326D01*
X149670425Y-76529330D01*
X149716661Y-76628484D01*
X149762897Y-76727638D01*
X149762898Y-76727639D01*
X149888402Y-76906877D01*
X150043123Y-77061598D01*
X150222361Y-77187102D01*
X150420670Y-77279575D01*
X150632023Y-77336207D01*
X150814926Y-77352208D01*
X150849998Y-77355277D01*
X150850000Y-77355277D01*
X150850002Y-77355277D01*
X150878254Y-77352805D01*
X151067977Y-77336207D01*
X151279330Y-77279575D01*
X151477639Y-77187102D01*
X151656877Y-77061598D01*
X151811598Y-76906877D01*
X151814050Y-76903374D01*
X151868628Y-76859751D01*
X151915624Y-76850500D01*
X153650270Y-76850500D01*
X153717309Y-76870185D01*
X153737951Y-76886819D01*
X153763181Y-76912049D01*
X153796666Y-76973372D01*
X153799500Y-76999730D01*
X153799500Y-77400001D01*
X153799501Y-77400019D01*
X153810000Y-77502796D01*
X153810001Y-77502799D01*
X153865185Y-77669331D01*
X153865187Y-77669336D01*
X153872594Y-77681344D01*
X153948590Y-77804555D01*
X153957289Y-77818657D01*
X154050951Y-77912319D01*
X154084436Y-77973642D01*
X154079452Y-78043334D01*
X154050951Y-78087681D01*
X153957289Y-78181342D01*
X153865187Y-78330663D01*
X153865186Y-78330666D01*
X153810001Y-78497203D01*
X153810001Y-78497204D01*
X153810000Y-78497204D01*
X153799500Y-78599983D01*
X153799500Y-79225001D01*
X153799501Y-79225019D01*
X153810000Y-79327796D01*
X153810001Y-79327799D01*
X153839816Y-79417772D01*
X153865186Y-79494334D01*
X153957288Y-79643656D01*
X154081344Y-79767712D01*
X154126972Y-79795855D01*
X154173696Y-79847803D01*
X154184919Y-79916766D01*
X154157075Y-79980848D01*
X154149556Y-79989075D01*
X153833032Y-80305599D01*
X153771709Y-80339084D01*
X153702017Y-80334100D01*
X153674231Y-80319495D01*
X153602734Y-80269432D01*
X153602732Y-80269431D01*
X153396497Y-80173261D01*
X153396488Y-80173258D01*
X153176697Y-80114366D01*
X153176693Y-80114365D01*
X153176692Y-80114365D01*
X153176691Y-80114364D01*
X153176686Y-80114364D01*
X152950002Y-80094532D01*
X152949998Y-80094532D01*
X152723313Y-80114364D01*
X152723302Y-80114366D01*
X152503511Y-80173258D01*
X152503502Y-80173261D01*
X152297267Y-80269431D01*
X152297265Y-80269432D01*
X152110858Y-80399954D01*
X151949954Y-80560858D01*
X151819432Y-80747265D01*
X151819431Y-80747267D01*
X151723261Y-80953502D01*
X151723258Y-80953511D01*
X151664366Y-81173302D01*
X151664364Y-81173313D01*
X151644532Y-81399998D01*
X151644532Y-81400001D01*
X151664364Y-81626686D01*
X151664366Y-81626697D01*
X151723258Y-81846488D01*
X151723261Y-81846497D01*
X151819431Y-82052732D01*
X151819432Y-82052734D01*
X151949954Y-82239141D01*
X152110858Y-82400045D01*
X152110861Y-82400047D01*
X152297266Y-82530568D01*
X152503504Y-82626739D01*
X152723308Y-82685635D01*
X152885230Y-82699801D01*
X152949998Y-82705468D01*
X152950000Y-82705468D01*
X152950002Y-82705468D01*
X153006673Y-82700509D01*
X153176692Y-82685635D01*
X153396496Y-82626739D01*
X153602734Y-82530568D01*
X153789139Y-82400047D01*
X153950047Y-82239139D01*
X154017049Y-82143447D01*
X154071168Y-82100012D01*
X154155495Y-82065084D01*
X154209629Y-82028913D01*
X154209629Y-82028912D01*
X154209631Y-82028912D01*
X154244022Y-82005932D01*
X154278416Y-81982952D01*
X155582951Y-80678416D01*
X155665084Y-80555495D01*
X155721658Y-80418913D01*
X155738529Y-80334100D01*
X155750500Y-80273920D01*
X155750500Y-79940638D01*
X155770185Y-79873599D01*
X155809401Y-79835100D01*
X155918656Y-79767712D01*
X156042712Y-79643656D01*
X156048337Y-79634534D01*
X156056130Y-79621903D01*
X156108078Y-79575178D01*
X156161668Y-79563000D01*
X156501571Y-79563000D01*
X156586115Y-79546182D01*
X156627244Y-79538001D01*
X156745627Y-79488965D01*
X156852169Y-79417777D01*
X157598224Y-78671720D01*
X157659545Y-78638237D01*
X157672019Y-78636183D01*
X157679255Y-78635368D01*
X157849522Y-78575789D01*
X158002262Y-78479816D01*
X158129816Y-78352262D01*
X158225789Y-78199522D01*
X158285368Y-78029255D01*
X158285369Y-78029249D01*
X158305565Y-77850003D01*
X158305565Y-77849996D01*
X158285369Y-77670750D01*
X158285368Y-77670745D01*
X158247842Y-77563502D01*
X158225789Y-77500478D01*
X158214606Y-77482681D01*
X158129815Y-77347737D01*
X158002262Y-77220184D01*
X157849523Y-77124211D01*
X157679254Y-77064631D01*
X157674957Y-77063651D01*
X157613978Y-77029543D01*
X157581119Y-76967882D01*
X157586812Y-76898245D01*
X157614863Y-76855081D01*
X158399069Y-76070876D01*
X158460391Y-76037392D01*
X158530083Y-76042376D01*
X158586016Y-76084248D01*
X158610433Y-76149712D01*
X158610107Y-76171160D01*
X158599500Y-76274981D01*
X158599500Y-76900001D01*
X158599501Y-76900019D01*
X158610000Y-77002796D01*
X158610001Y-77002799D01*
X158665185Y-77169331D01*
X158665187Y-77169336D01*
X158757289Y-77318657D01*
X158850951Y-77412319D01*
X158884436Y-77473642D01*
X158879452Y-77543334D01*
X158850951Y-77587681D01*
X158757289Y-77681342D01*
X158665187Y-77830663D01*
X158665185Y-77830668D01*
X158648955Y-77879647D01*
X158610001Y-77997203D01*
X158610001Y-77997204D01*
X158610000Y-77997204D01*
X158599500Y-78099983D01*
X158599500Y-78725001D01*
X158599501Y-78725019D01*
X158610000Y-78827796D01*
X158610001Y-78827799D01*
X158665185Y-78994331D01*
X158665187Y-78994336D01*
X158674878Y-79010047D01*
X158757288Y-79143656D01*
X158881344Y-79267712D01*
X158990597Y-79335099D01*
X159037321Y-79387047D01*
X159049500Y-79440638D01*
X159049500Y-80626795D01*
X159029815Y-80693834D01*
X158996624Y-80728370D01*
X158913599Y-80786505D01*
X158913597Y-80786506D01*
X158746508Y-80953594D01*
X158616269Y-81139595D01*
X158561692Y-81183219D01*
X158492193Y-81190412D01*
X158429839Y-81158890D01*
X158413119Y-81139594D01*
X158283113Y-80953926D01*
X158283108Y-80953920D01*
X158116082Y-80786894D01*
X157922578Y-80651399D01*
X157708492Y-80551570D01*
X157708486Y-80551567D01*
X157495000Y-80494364D01*
X157495000Y-81391988D01*
X157437993Y-81359075D01*
X157310826Y-81325000D01*
X157179174Y-81325000D01*
X157052007Y-81359075D01*
X156995000Y-81391988D01*
X156995000Y-80494364D01*
X156994999Y-80494364D01*
X156781513Y-80551567D01*
X156781507Y-80551570D01*
X156567422Y-80651399D01*
X156567420Y-80651400D01*
X156373926Y-80786886D01*
X156373920Y-80786891D01*
X156206891Y-80953920D01*
X156206886Y-80953926D01*
X156071400Y-81147420D01*
X156071399Y-81147422D01*
X155971570Y-81361507D01*
X155971567Y-81361513D01*
X155914364Y-81574999D01*
X155914364Y-81575000D01*
X156811988Y-81575000D01*
X156779075Y-81632007D01*
X156745000Y-81759174D01*
X156745000Y-81890826D01*
X156779075Y-82017993D01*
X156811988Y-82075000D01*
X155914364Y-82075000D01*
X155971567Y-82288486D01*
X155971570Y-82288492D01*
X156071399Y-82502578D01*
X156206894Y-82696082D01*
X156373917Y-82863105D01*
X156567421Y-82998600D01*
X156781507Y-83098429D01*
X156781516Y-83098433D01*
X156995000Y-83155634D01*
X156995000Y-82258012D01*
X157052007Y-82290925D01*
X157179174Y-82325000D01*
X157310826Y-82325000D01*
X157437993Y-82290925D01*
X157495000Y-82258012D01*
X157495000Y-83155633D01*
X157708483Y-83098433D01*
X157708492Y-83098429D01*
X157922578Y-82998600D01*
X158116082Y-82863105D01*
X158283105Y-82696082D01*
X158413119Y-82510405D01*
X158467696Y-82466781D01*
X158537195Y-82459588D01*
X158599549Y-82491110D01*
X158616269Y-82510405D01*
X158746505Y-82696401D01*
X158913599Y-82863495D01*
X159010384Y-82931265D01*
X159107165Y-82999032D01*
X159107167Y-82999033D01*
X159107170Y-82999035D01*
X159321337Y-83098903D01*
X159549592Y-83160063D01*
X159726034Y-83175500D01*
X159784999Y-83180659D01*
X159785000Y-83180659D01*
X159785001Y-83180659D01*
X159843966Y-83175500D01*
X160020408Y-83160063D01*
X160248663Y-83098903D01*
X160462830Y-82999035D01*
X160656401Y-82863495D01*
X160778329Y-82741566D01*
X160839648Y-82708084D01*
X160909340Y-82713068D01*
X160965274Y-82754939D01*
X160982189Y-82785917D01*
X161031202Y-82917328D01*
X161031206Y-82917335D01*
X161117452Y-83032544D01*
X161117455Y-83032547D01*
X161232664Y-83118793D01*
X161232671Y-83118797D01*
X161367517Y-83169091D01*
X161367516Y-83169091D01*
X161374444Y-83169835D01*
X161427127Y-83175500D01*
X163222872Y-83175499D01*
X163282483Y-83169091D01*
X163417331Y-83118796D01*
X163532546Y-83032546D01*
X163618796Y-82917331D01*
X163669091Y-82782483D01*
X163675500Y-82722873D01*
X163675499Y-80927128D01*
X163669091Y-80867517D01*
X163667810Y-80864083D01*
X163618797Y-80732671D01*
X163618793Y-80732664D01*
X163532547Y-80617455D01*
X163532544Y-80617452D01*
X163417335Y-80531206D01*
X163417328Y-80531202D01*
X163282482Y-80480908D01*
X163282483Y-80480908D01*
X163222883Y-80474501D01*
X163222881Y-80474500D01*
X163222873Y-80474500D01*
X163222864Y-80474500D01*
X161427129Y-80474500D01*
X161427123Y-80474501D01*
X161367516Y-80480908D01*
X161232671Y-80531202D01*
X161232664Y-80531206D01*
X161117455Y-80617452D01*
X161117452Y-80617455D01*
X161031206Y-80732664D01*
X161031203Y-80732669D01*
X160982189Y-80864083D01*
X160940317Y-80920016D01*
X160874853Y-80944433D01*
X160806580Y-80929581D01*
X160778326Y-80908430D01*
X160656402Y-80786506D01*
X160603374Y-80749374D01*
X160559751Y-80694797D01*
X160550500Y-80647801D01*
X160550500Y-79440638D01*
X160570185Y-79373599D01*
X160609401Y-79335100D01*
X160718656Y-79267712D01*
X160842712Y-79143656D01*
X160934814Y-78994334D01*
X160989999Y-78827797D01*
X161000500Y-78725009D01*
X161000499Y-78099992D01*
X160999241Y-78087681D01*
X160989999Y-77997203D01*
X160989998Y-77997200D01*
X160961871Y-77912319D01*
X160934814Y-77830666D01*
X160842712Y-77681344D01*
X160749049Y-77587681D01*
X160715564Y-77526358D01*
X160720548Y-77456666D01*
X160749049Y-77412319D01*
X160761367Y-77400001D01*
X160842712Y-77318656D01*
X160848337Y-77309534D01*
X160856130Y-77296903D01*
X160908078Y-77250178D01*
X160961668Y-77238000D01*
X161666692Y-77238000D01*
X161733731Y-77257685D01*
X161754373Y-77274319D01*
X161985325Y-77505272D01*
X161985328Y-77505275D01*
X162072473Y-77563503D01*
X162072474Y-77563503D01*
X162072475Y-77563504D01*
X162091873Y-77576465D01*
X162210256Y-77625501D01*
X162210260Y-77625501D01*
X162210261Y-77625502D01*
X162335928Y-77650500D01*
X162335931Y-77650500D01*
X164182225Y-77650500D01*
X164249264Y-77670185D01*
X164269907Y-77686820D01*
X164308796Y-77725710D01*
X164308800Y-77725713D01*
X164308802Y-77725715D01*
X164442113Y-77804555D01*
X164590844Y-77847765D01*
X164625595Y-77850500D01*
X164974404Y-77850499D01*
X165009156Y-77847765D01*
X165157887Y-77804555D01*
X165291198Y-77725715D01*
X165303912Y-77713001D01*
X165362673Y-77654241D01*
X165423996Y-77620756D01*
X165493688Y-77625740D01*
X165538035Y-77654241D01*
X165609105Y-77725311D01*
X165609114Y-77725317D01*
X165742315Y-77804092D01*
X165742318Y-77804093D01*
X165874998Y-77842641D01*
X165875000Y-77842640D01*
X166325000Y-77842640D01*
X166325001Y-77842641D01*
X166457681Y-77804093D01*
X166457684Y-77804092D01*
X166590885Y-77725317D01*
X166590894Y-77725311D01*
X166700311Y-77615894D01*
X166700317Y-77615885D01*
X166779092Y-77482684D01*
X166779093Y-77482681D01*
X166822265Y-77334084D01*
X166822267Y-77334073D01*
X166824999Y-77299359D01*
X166825000Y-77299346D01*
X166825000Y-77225000D01*
X166325000Y-77225000D01*
X166325000Y-77842640D01*
X165875000Y-77842640D01*
X165875000Y-76775000D01*
X166325000Y-76775000D01*
X166824999Y-76775000D01*
X166824999Y-76700658D01*
X166824998Y-76700636D01*
X166822266Y-76665921D01*
X166779093Y-76517318D01*
X166779092Y-76517315D01*
X166700317Y-76384114D01*
X166700311Y-76384105D01*
X166590894Y-76274688D01*
X166590885Y-76274682D01*
X166457684Y-76195907D01*
X166457683Y-76195906D01*
X166325000Y-76157357D01*
X166325000Y-76775000D01*
X165875000Y-76775000D01*
X165875000Y-76157357D01*
X165742316Y-76195906D01*
X165742315Y-76195907D01*
X165609114Y-76274682D01*
X165609105Y-76274688D01*
X165538035Y-76345759D01*
X165476712Y-76379244D01*
X165407020Y-76374260D01*
X165362673Y-76345759D01*
X165291203Y-76274289D01*
X165291194Y-76274282D01*
X165158668Y-76195907D01*
X165157887Y-76195445D01*
X165009156Y-76152235D01*
X165009153Y-76152234D01*
X165009151Y-76152234D01*
X164978395Y-76149814D01*
X164974405Y-76149500D01*
X164974404Y-76149500D01*
X164625606Y-76149500D01*
X164625584Y-76149501D01*
X164590847Y-76152234D01*
X164590844Y-76152235D01*
X164442113Y-76195445D01*
X164442111Y-76195445D01*
X164442111Y-76195446D01*
X164308805Y-76274282D01*
X164308796Y-76274289D01*
X164269907Y-76313180D01*
X164208584Y-76346666D01*
X164182225Y-76349500D01*
X162720808Y-76349500D01*
X162653769Y-76329815D01*
X162633127Y-76313181D01*
X162402174Y-76082227D01*
X162402173Y-76082226D01*
X162390610Y-76074500D01*
X162342533Y-76042376D01*
X162295626Y-76011034D01*
X162267970Y-75999579D01*
X162213567Y-75955737D01*
X162191503Y-75889443D01*
X162208783Y-75821744D01*
X162252299Y-75778289D01*
X162341198Y-75725715D01*
X162380093Y-75686820D01*
X162441416Y-75653334D01*
X162467775Y-75650500D01*
X164832225Y-75650500D01*
X164899264Y-75670185D01*
X164919907Y-75686820D01*
X164958796Y-75725710D01*
X164958800Y-75725713D01*
X164958802Y-75725715D01*
X165092113Y-75804555D01*
X165240844Y-75847765D01*
X165275595Y-75850500D01*
X165624404Y-75850499D01*
X165659156Y-75847765D01*
X165807887Y-75804555D01*
X165941198Y-75725715D01*
X166050715Y-75616198D01*
X166129555Y-75482887D01*
X166172765Y-75334156D01*
X166175500Y-75299405D01*
X166175499Y-74700596D01*
X166172765Y-74665844D01*
X166129555Y-74517113D01*
X166061948Y-74402796D01*
X166050717Y-74383805D01*
X166050710Y-74383796D01*
X165941203Y-74274289D01*
X165941194Y-74274282D01*
X165860111Y-74226330D01*
X165807887Y-74195445D01*
X165659156Y-74152235D01*
X165659153Y-74152234D01*
X165659151Y-74152234D01*
X165628395Y-74149814D01*
X165624405Y-74149500D01*
X165624404Y-74149500D01*
X165275606Y-74149500D01*
X165275584Y-74149501D01*
X165240847Y-74152234D01*
X165240844Y-74152235D01*
X165092113Y-74195445D01*
X165092111Y-74195445D01*
X165092111Y-74195446D01*
X164958805Y-74274282D01*
X164958796Y-74274289D01*
X164919907Y-74313180D01*
X164858584Y-74346666D01*
X164832225Y-74349500D01*
X162467775Y-74349500D01*
X162400736Y-74329815D01*
X162380093Y-74313180D01*
X162341203Y-74274289D01*
X162341194Y-74274282D01*
X162260111Y-74226330D01*
X162207887Y-74195445D01*
X162059156Y-74152235D01*
X162059153Y-74152234D01*
X162059151Y-74152234D01*
X162024410Y-74149500D01*
X162024405Y-74149500D01*
X161970807Y-74149500D01*
X161903768Y-74129815D01*
X161883126Y-74113181D01*
X161680533Y-73910587D01*
X161647048Y-73849264D01*
X161652032Y-73779572D01*
X161686776Y-73732326D01*
X161685682Y-73731232D01*
X161800710Y-73616203D01*
X161800715Y-73616198D01*
X161879555Y-73482887D01*
X161922765Y-73334156D01*
X161925500Y-73299405D01*
X161925499Y-72700596D01*
X161922765Y-72665844D01*
X161879555Y-72517113D01*
X161800715Y-72383802D01*
X161800713Y-72383800D01*
X161800710Y-72383796D01*
X161691203Y-72274289D01*
X161691194Y-72274282D01*
X161610111Y-72226330D01*
X161557887Y-72195445D01*
X161409156Y-72152235D01*
X161409153Y-72152234D01*
X161409151Y-72152234D01*
X161378395Y-72149814D01*
X161374405Y-72149500D01*
X161374404Y-72149500D01*
X161025606Y-72149500D01*
X161025584Y-72149501D01*
X160990847Y-72152234D01*
X160990844Y-72152235D01*
X160842113Y-72195445D01*
X160842111Y-72195445D01*
X160842111Y-72195446D01*
X160708805Y-72274282D01*
X160708796Y-72274289D01*
X160669907Y-72313180D01*
X160608584Y-72346666D01*
X160582225Y-72349500D01*
X159620808Y-72349500D01*
X159553769Y-72329815D01*
X159533127Y-72313181D01*
X158311819Y-71091873D01*
X158278334Y-71030550D01*
X158275500Y-71004192D01*
X158275500Y-70900217D01*
X158295185Y-70833178D01*
X158334405Y-70794678D01*
X158418651Y-70742715D01*
X158418654Y-70742713D01*
X158418653Y-70742713D01*
X158418656Y-70742712D01*
X158542712Y-70618656D01*
X158634814Y-70469334D01*
X158689999Y-70302797D01*
X158700500Y-70200009D01*
X158700499Y-68799992D01*
X158700498Y-68799983D01*
X159499500Y-68799983D01*
X159499500Y-70200001D01*
X159499501Y-70200018D01*
X159510000Y-70302796D01*
X159510001Y-70302799D01*
X159565185Y-70469331D01*
X159565187Y-70469336D01*
X159600069Y-70525888D01*
X159657288Y-70618656D01*
X159781344Y-70742712D01*
X159930666Y-70834814D01*
X160097203Y-70889999D01*
X160199991Y-70900500D01*
X160950008Y-70900499D01*
X160950016Y-70900498D01*
X160950019Y-70900498D01*
X161006302Y-70894748D01*
X161052797Y-70889999D01*
X161219334Y-70834814D01*
X161368656Y-70742712D01*
X161492712Y-70618656D01*
X161584814Y-70469334D01*
X161596028Y-70435494D01*
X161635801Y-70378050D01*
X161700317Y-70351228D01*
X161713733Y-70350500D01*
X168132622Y-70350500D01*
X168199661Y-70370185D01*
X168238160Y-70409403D01*
X168306458Y-70520130D01*
X168306461Y-70520134D01*
X168429865Y-70643538D01*
X168429869Y-70643541D01*
X168578403Y-70735159D01*
X168578406Y-70735160D01*
X168741205Y-70789104D01*
X168744067Y-70790053D01*
X168846321Y-70800500D01*
X169953678Y-70800499D01*
X170055933Y-70790053D01*
X170221596Y-70735159D01*
X170370134Y-70643539D01*
X170493539Y-70520134D01*
X170585159Y-70371596D01*
X170640053Y-70205933D01*
X170650500Y-70103679D01*
X170650499Y-68996322D01*
X170640053Y-68894067D01*
X170623113Y-68842945D01*
X170585160Y-68728406D01*
X170585159Y-68728403D01*
X170493541Y-68579869D01*
X170493538Y-68579865D01*
X170370134Y-68456461D01*
X170370130Y-68456458D01*
X170221596Y-68364840D01*
X170221593Y-68364839D01*
X170055935Y-68309947D01*
X169953680Y-68299500D01*
X168846327Y-68299500D01*
X168846312Y-68299501D01*
X168744064Y-68309947D01*
X168578406Y-68364839D01*
X168578403Y-68364840D01*
X168429869Y-68456458D01*
X168429865Y-68456461D01*
X168306461Y-68579865D01*
X168306458Y-68579869D01*
X168214841Y-68728402D01*
X168202880Y-68764502D01*
X168163108Y-68821947D01*
X168098593Y-68848772D01*
X168085173Y-68849500D01*
X161767535Y-68849500D01*
X161700496Y-68829815D01*
X161654741Y-68777011D01*
X161644177Y-68738102D01*
X161643186Y-68728402D01*
X161639999Y-68697203D01*
X161584814Y-68530666D01*
X161492712Y-68381344D01*
X161368656Y-68257288D01*
X161219334Y-68165186D01*
X161052797Y-68110001D01*
X161052795Y-68110000D01*
X160950010Y-68099500D01*
X160199998Y-68099500D01*
X160199980Y-68099501D01*
X160097203Y-68110000D01*
X160097200Y-68110001D01*
X159930668Y-68165185D01*
X159930663Y-68165187D01*
X159781342Y-68257289D01*
X159657289Y-68381342D01*
X159565187Y-68530663D01*
X159565186Y-68530666D01*
X159510001Y-68697203D01*
X159510001Y-68697204D01*
X159510000Y-68697204D01*
X159499500Y-68799983D01*
X158700498Y-68799983D01*
X158698151Y-68777011D01*
X158689999Y-68697203D01*
X158689998Y-68697200D01*
X158682380Y-68674211D01*
X158634814Y-68530666D01*
X158542712Y-68381344D01*
X158418656Y-68257288D01*
X158269334Y-68165186D01*
X158102797Y-68110001D01*
X158102795Y-68110000D01*
X158000010Y-68099500D01*
X157249998Y-68099500D01*
X157249980Y-68099501D01*
X157147203Y-68110000D01*
X157147200Y-68110001D01*
X156980668Y-68165185D01*
X156980663Y-68165187D01*
X156831342Y-68257289D01*
X156707289Y-68381342D01*
X156615187Y-68530663D01*
X156615186Y-68530666D01*
X156560002Y-68697202D01*
X156560001Y-68697204D01*
X156560000Y-68697205D01*
X156557001Y-68726565D01*
X156556814Y-68728404D01*
X156555823Y-68738102D01*
X156529427Y-68802793D01*
X156472247Y-68842945D01*
X156432465Y-68849500D01*
X155532940Y-68849500D01*
X155465901Y-68829815D01*
X155445259Y-68813181D01*
X155402262Y-68770184D01*
X155249523Y-68674211D01*
X155079254Y-68614631D01*
X155079249Y-68614630D01*
X154900004Y-68594435D01*
X154899996Y-68594435D01*
X154720750Y-68614630D01*
X154720745Y-68614631D01*
X154550476Y-68674211D01*
X154397737Y-68770184D01*
X154270184Y-68897737D01*
X154174211Y-69050476D01*
X154114631Y-69220745D01*
X154114630Y-69220750D01*
X154094435Y-69399996D01*
X154094435Y-69400003D01*
X154114630Y-69579249D01*
X154114631Y-69579254D01*
X154174211Y-69749523D01*
X154267341Y-69897737D01*
X154270184Y-69902262D01*
X154397738Y-70029816D01*
X154550478Y-70125789D01*
X154720745Y-70185368D01*
X154720750Y-70185369D01*
X154899996Y-70205565D01*
X154900000Y-70205565D01*
X154900004Y-70205565D01*
X155079249Y-70185369D01*
X155079252Y-70185368D01*
X155079255Y-70185368D01*
X155159017Y-70157457D01*
X155199972Y-70150500D01*
X156432465Y-70150500D01*
X156499504Y-70170185D01*
X156545259Y-70222989D01*
X156555823Y-70261898D01*
X156560001Y-70302797D01*
X156560001Y-70302799D01*
X156615185Y-70469331D01*
X156615187Y-70469336D01*
X156650069Y-70525888D01*
X156682985Y-70579255D01*
X156707289Y-70618657D01*
X156831345Y-70742713D01*
X156831348Y-70742715D01*
X156915595Y-70794678D01*
X156962321Y-70846625D01*
X156974500Y-70900217D01*
X156974500Y-71389069D01*
X156974500Y-71389071D01*
X156974499Y-71389071D01*
X156999497Y-71514738D01*
X156999499Y-71514744D01*
X157033414Y-71596623D01*
X157048535Y-71633127D01*
X157108942Y-71723534D01*
X157119726Y-71739673D01*
X157119727Y-71739674D01*
X157367873Y-71987819D01*
X157401358Y-72049142D01*
X157396374Y-72118833D01*
X157354503Y-72174767D01*
X157289038Y-72199184D01*
X157280192Y-72199500D01*
X156999999Y-72199500D01*
X156999980Y-72199501D01*
X156897203Y-72210000D01*
X156897200Y-72210001D01*
X156730668Y-72265185D01*
X156730663Y-72265187D01*
X156581342Y-72357289D01*
X156457289Y-72481342D01*
X156365187Y-72630663D01*
X156365186Y-72630666D01*
X156310001Y-72797203D01*
X156310001Y-72797204D01*
X156310000Y-72797204D01*
X156299500Y-72899983D01*
X156299500Y-74300001D01*
X156299501Y-74300018D01*
X156310000Y-74402796D01*
X156310001Y-74402799D01*
X156365185Y-74569331D01*
X156365186Y-74569334D01*
X156457288Y-74718656D01*
X156581344Y-74842712D01*
X156730666Y-74934814D01*
X156897203Y-74989999D01*
X156999991Y-75000500D01*
X157330192Y-75000499D01*
X157397230Y-75020183D01*
X157442985Y-75072987D01*
X157452929Y-75142146D01*
X157423904Y-75205701D01*
X157417872Y-75212180D01*
X156241728Y-76388325D01*
X156180405Y-76421810D01*
X156110713Y-76416826D01*
X156054780Y-76374954D01*
X156048509Y-76365743D01*
X156042712Y-76356344D01*
X155918656Y-76232288D01*
X155784436Y-76149501D01*
X155769336Y-76140187D01*
X155769331Y-76140185D01*
X155767862Y-76139698D01*
X155602797Y-76085001D01*
X155602795Y-76085000D01*
X155500016Y-76074500D01*
X155500009Y-76074500D01*
X155099730Y-76074500D01*
X155032691Y-76054815D01*
X155012049Y-76038181D01*
X154838494Y-75864626D01*
X154805009Y-75803303D01*
X154809993Y-75733611D01*
X154851865Y-75677678D01*
X154860197Y-75671955D01*
X154927262Y-75629816D01*
X155054816Y-75502262D01*
X155150789Y-75349522D01*
X155210368Y-75179255D01*
X155222342Y-75072987D01*
X155230565Y-75000002D01*
X155230565Y-74999998D01*
X155221599Y-74920426D01*
X155220117Y-74907276D01*
X155232171Y-74838456D01*
X155255656Y-74805712D01*
X155255657Y-74805711D01*
X155342712Y-74718656D01*
X155434814Y-74569334D01*
X155489999Y-74402797D01*
X155500500Y-74300009D01*
X155500499Y-72899992D01*
X155489999Y-72797203D01*
X155434814Y-72630666D01*
X155342712Y-72481344D01*
X155218656Y-72357288D01*
X155125772Y-72299997D01*
X155069336Y-72265187D01*
X155069331Y-72265185D01*
X155067862Y-72264698D01*
X154902797Y-72210001D01*
X154902795Y-72210000D01*
X154800010Y-72199500D01*
X154049998Y-72199500D01*
X154049978Y-72199502D01*
X154012845Y-72203295D01*
X153944153Y-72190525D01*
X153912564Y-72167618D01*
X153539674Y-71794727D01*
X153539673Y-71794726D01*
X153457281Y-71739674D01*
X153433127Y-71723535D01*
X153365367Y-71695468D01*
X153314744Y-71674499D01*
X153314738Y-71674497D01*
X153189071Y-71649500D01*
X153189069Y-71649500D01*
X151985644Y-71649500D01*
X151918605Y-71629815D01*
X151884069Y-71596623D01*
X151811599Y-71493124D01*
X151811596Y-71493121D01*
X151656877Y-71338402D01*
X151500838Y-71229142D01*
X151477638Y-71212897D01*
X151378484Y-71166661D01*
X151279330Y-71120425D01*
X151279326Y-71120424D01*
X151279322Y-71120422D01*
X151067977Y-71063793D01*
X150850002Y-71044723D01*
X150849998Y-71044723D01*
X150704682Y-71057436D01*
X150632023Y-71063793D01*
X150632020Y-71063793D01*
X150420677Y-71120422D01*
X150420668Y-71120426D01*
X150222361Y-71212898D01*
X150222357Y-71212900D01*
X150043121Y-71338402D01*
X149888402Y-71493121D01*
X149762900Y-71672357D01*
X149762898Y-71672361D01*
X149670426Y-71870668D01*
X149670422Y-71870677D01*
X149613793Y-72082020D01*
X149613793Y-72082024D01*
X149594723Y-72299997D01*
X138100500Y-72299997D01*
X138100500Y-70389998D01*
X139094532Y-70389998D01*
X139094532Y-70390001D01*
X139114364Y-70616686D01*
X139114366Y-70616697D01*
X139173258Y-70836488D01*
X139173261Y-70836497D01*
X139269431Y-71042732D01*
X139269432Y-71042734D01*
X139399954Y-71229141D01*
X139560858Y-71390045D01*
X139560861Y-71390047D01*
X139747266Y-71520568D01*
X139953504Y-71616739D01*
X140173308Y-71675635D01*
X140335230Y-71689801D01*
X140399998Y-71695468D01*
X140400000Y-71695468D01*
X140400002Y-71695468D01*
X140456673Y-71690509D01*
X140626692Y-71675635D01*
X140846496Y-71616739D01*
X141052734Y-71520568D01*
X141239139Y-71390047D01*
X141400047Y-71229139D01*
X141433264Y-71181698D01*
X141487839Y-71138074D01*
X141510647Y-71131205D01*
X141564854Y-71120422D01*
X141608913Y-71111658D01*
X141645090Y-71096672D01*
X141733776Y-71059939D01*
X141781228Y-71050500D01*
X141894932Y-71050500D01*
X141960904Y-71069506D01*
X142050477Y-71125789D01*
X142050481Y-71125790D01*
X142220737Y-71185366D01*
X142220743Y-71185367D01*
X142220745Y-71185368D01*
X142220746Y-71185368D01*
X142220750Y-71185369D01*
X142399996Y-71205565D01*
X142400000Y-71205565D01*
X142400004Y-71205565D01*
X142579249Y-71185369D01*
X142579252Y-71185368D01*
X142579255Y-71185368D01*
X142749522Y-71125789D01*
X142902262Y-71029816D01*
X143029816Y-70902262D01*
X143125789Y-70749522D01*
X143185368Y-70579255D01*
X143185369Y-70579249D01*
X143205565Y-70400003D01*
X143205565Y-70399996D01*
X143185369Y-70220750D01*
X143185368Y-70220745D01*
X143125788Y-70050476D01*
X143058571Y-69943502D01*
X143029816Y-69897738D01*
X142902262Y-69770184D01*
X142849875Y-69737267D01*
X142749523Y-69674211D01*
X142579254Y-69614631D01*
X142579249Y-69614630D01*
X142400004Y-69594435D01*
X142399996Y-69594435D01*
X142220750Y-69614630D01*
X142220737Y-69614633D01*
X142050481Y-69674209D01*
X142050477Y-69674210D01*
X141960904Y-69730494D01*
X141894932Y-69749500D01*
X141819903Y-69749500D01*
X141752864Y-69729815D01*
X141751015Y-69728604D01*
X141745493Y-69724914D01*
X141608917Y-69668343D01*
X141608908Y-69668340D01*
X141510646Y-69648794D01*
X141448736Y-69616408D01*
X141433264Y-69598300D01*
X141400045Y-69550858D01*
X141239141Y-69389954D01*
X141052734Y-69259432D01*
X141052732Y-69259431D01*
X140846497Y-69163261D01*
X140846488Y-69163258D01*
X140626697Y-69104366D01*
X140626693Y-69104365D01*
X140626692Y-69104365D01*
X140626691Y-69104364D01*
X140626686Y-69104364D01*
X140400002Y-69084532D01*
X140399998Y-69084532D01*
X140173313Y-69104364D01*
X140173302Y-69104366D01*
X139953511Y-69163258D01*
X139953502Y-69163261D01*
X139747267Y-69259431D01*
X139747265Y-69259432D01*
X139560858Y-69389954D01*
X139399954Y-69550858D01*
X139269432Y-69737265D01*
X139269431Y-69737267D01*
X139173261Y-69943502D01*
X139173258Y-69943511D01*
X139114366Y-70163302D01*
X139114364Y-70163313D01*
X139094532Y-70389998D01*
X138100500Y-70389998D01*
X138100500Y-67624500D01*
X138120185Y-67557461D01*
X138172989Y-67511706D01*
X138224500Y-67500500D01*
X170975500Y-67500500D01*
X171042539Y-67520185D01*
G37*
%TD.AperFunction*%
%TD*%
M02*
